# xmcd
#
# Track frame offsets: 
#        150
#        18723
#        49033
#        71278
#        85468
#        102325
#        120405
#        140605
#        157573
#        174340
#
# Disc length: 2708 seconds
#
# Revision: 7
# Processed by: cddbd v1.5.2PL0 Copyright (c) Steve Scherf et al.
# Submitted via: ExactAudioCopyFreeDBPlugin 1.0
#
DISCID=770a920a
DTITLE=Fredl Fesl - 2- Die Zweite
DYEAR=1977
DGENRE=Cabaret
TTITLE0=3 Musketiere
TTITLE1=Ramersdorfer Ritterragtime
TTITLE2=Das Stachelschwein
TTITLE3=Spieglein, Spieglein
TTITLE4=Wegwerflied
TTITLE5=Knödelsong
TTITLE6=Das Lied vom Rausch
TTITLE7=Der edle Rittersepp
TTITLE8=Ein eiskaltes Lied
TTITLE9=Für die Katz
EXTD=YEAR: 1977
EXTT0=
EXTT1=
EXTT2=
EXTT3=
EXTT4=
EXTT5=
EXTT6=
EXTT7=
EXTT8=
EXTT9=
PLAYORDER=
